<svg width="28" height="27" viewBox="0 0 28 27" fill="none" xmlns="http://www.w3.org/2000/svg">
<ellipse rx="7.50584" ry="7.51578" transform="matrix(0.695459 -0.718566 0.734722 0.678368 10.742 10.4919)" fill="#023671"/>
<ellipse rx="6.75526" ry="6.7642" transform="matrix(0.695459 -0.718566 0.734722 0.678368 10.742 10.4919)" fill="white"/>
<ellipse rx="6.00467" ry="6.01262" transform="matrix(0.695459 -0.718566 0.734722 0.678368 10.742 10.4919)" fill="#023671"/>
<ellipse rx="5.25409" ry="5.26105" transform="matrix(0.695459 -0.718566 0.734722 0.678368 10.742 10.4919)" fill="white"/>
<path d="M15.1096 16.5671L17.1976 14.4097L22.721 19.5095C23.3302 20.0719 23.3566 21.0108 22.78 21.6066V21.6066C22.2034 22.2023 21.2422 22.2293 20.633 21.6669L15.1096 16.5671Z" fill="#023671"/>
<path d="M15.6315 16.0277L16.6755 14.9491L22.1983 20.0482C22.5028 20.3294 22.516 20.7988 22.2277 21.0967V21.0967C21.9394 21.3946 21.4588 21.4081 21.1543 21.1269L15.6315 16.0277Z" fill="white"/>
<line y1="-0.5" x2="1.50117" y2="-0.5" transform="matrix(0.695459 -0.718566 0.734722 0.678368 17.9508 18.1691)" stroke="#023671"/>
</svg>
