<svg width="1064" height="74" viewBox="0 0 1064 74" fill="none" xmlns="http://www.w3.org/2000/svg">
<path d="M112 10C112 40.3757 87.3757 65 57 65C26.6243 65 2 40.3757 2 10" stroke="#023671" stroke-width="3"/>
<path d="M63.6729 24.752V10.8687H67V31H48.6988V27.3402H61.32L47 11.5882L49.3529 9L63.6729 24.752Z" fill="#023671"/>
<path d="M171.73 70.288C167.746 70.288 164.602 69.592 162.298 68.2C159.994 66.808 158.362 64.864 157.402 62.368C156.442 59.824 155.962 56.872 155.962 53.512V50.488H166.186V53.584C166.186 55.216 166.258 56.728 166.402 58.12C166.594 59.464 167.074 60.544 167.842 61.36C168.61 62.128 169.882 62.512 171.658 62.512C173.482 62.512 174.802 62.104 175.618 61.288C176.482 60.424 177.01 59.272 177.202 57.832C177.442 56.344 177.562 54.712 177.562 52.936V43.144H167.626V37.24H177.562V27.664C177.562 25.552 177.394 23.8 177.058 22.408C176.722 21.016 176.122 19.984 175.258 19.312C174.442 18.64 173.242 18.304 171.658 18.304C169.93 18.304 168.682 18.736 167.914 19.6C167.146 20.416 166.666 21.52 166.474 22.912C166.282 24.304 166.186 25.864 166.186 27.592V30.904H155.962V28.168C155.962 24.76 156.418 21.736 157.33 19.096C158.242 16.408 159.85 14.32 162.154 12.832C164.458 11.296 167.65 10.528 171.73 10.528C176.05 10.528 179.41 11.368 181.81 13.048C184.21 14.68 185.89 16.96 186.85 19.888C187.81 22.768 188.29 26.128 188.29 29.968V50.704C188.29 54.688 187.81 58.168 186.85 61.144C185.89 64.072 184.21 66.328 181.81 67.912C179.41 69.496 176.05 70.288 171.73 70.288ZM197.063 70V11.68H207.647V36.088H219.527V11.68H230.183V70H219.527V43.648H207.647V70H197.063ZM239.827 70V11.68H264.307V19.168H250.483V35.944H261.355V43.36H250.483V62.656H264.451V70H239.827ZM271.344 70V11.68H288.48C291.984 11.68 294.816 12.328 296.976 13.624C299.184 14.92 300.792 16.816 301.8 19.312C302.856 21.76 303.384 24.736 303.384 28.24C303.384 32.032 302.736 35.104 301.44 37.456C300.144 39.76 298.32 41.44 295.968 42.496C293.664 43.552 290.928 44.08 287.76 44.08H282V70H271.344ZM282 36.592H286.032C287.952 36.592 289.44 36.328 290.496 35.8C291.6 35.224 292.344 34.336 292.728 33.136C293.16 31.888 293.376 30.232 293.376 28.168C293.376 26.056 293.208 24.352 292.872 23.056C292.584 21.712 291.912 20.728 290.856 20.104C289.848 19.48 288.24 19.168 286.032 19.168H282V36.592ZM310.176 70V11.68H334.872V19.528H320.76V70H310.176ZM341.553 70V11.68H350.265V48.472L366.249 11.68H373.377V70H364.593V32.632L348.537 70H341.553ZM383.194 70V11.68H391.906V48.472L407.89 11.68H415.018V70H406.234V32.632L390.178 70H383.194Z" fill="#134D81"/>
<path d="M443.064 70V11.68H453.648V36.088H465.528V11.68H476.184V70H465.528V43.648H453.648V70H443.064ZM501.668 70.792C497.54 70.792 494.252 70.024 491.804 68.488C489.356 66.952 487.604 64.744 486.548 61.864C485.492 58.984 484.964 55.576 484.964 51.64V29.824C484.964 25.888 485.492 22.528 486.548 19.744C487.604 16.912 489.356 14.752 491.804 13.264C494.252 11.776 497.54 11.032 501.668 11.032C505.892 11.032 509.204 11.776 511.604 13.264C514.052 14.752 515.804 16.912 516.86 19.744C517.964 22.528 518.516 25.888 518.516 29.824V51.712C518.516 55.6 517.964 58.984 516.86 61.864C515.804 64.696 514.052 66.904 511.604 68.488C509.204 70.024 505.892 70.792 501.668 70.792ZM501.668 62.944C503.444 62.944 504.74 62.56 505.556 61.792C506.42 61.024 506.996 59.968 507.284 58.624C507.572 57.28 507.716 55.816 507.716 54.232V27.376C507.716 25.744 507.572 24.28 507.284 22.984C506.996 21.688 506.42 20.68 505.556 19.96C504.74 19.192 503.444 18.808 501.668 18.808C499.988 18.808 498.716 19.192 497.852 19.96C496.988 20.68 496.412 21.688 496.124 22.984C495.836 24.28 495.692 25.744 495.692 27.376V54.232C495.692 55.816 495.812 57.28 496.052 58.624C496.34 59.968 496.916 61.024 497.78 61.792C498.644 62.56 499.94 62.944 501.668 62.944ZM527.118 70V11.68H541.446C544.038 11.68 546.366 11.92 548.43 12.4C550.542 12.88 552.342 13.696 553.83 14.848C555.366 15.952 556.542 17.464 557.358 19.384C558.174 21.304 558.582 23.728 558.582 26.656C558.582 29.008 558.246 31.024 557.574 32.704C556.95 34.384 556.014 35.728 554.766 36.736C553.518 37.696 551.958 38.344 550.086 38.68C552.39 39.064 554.286 39.88 555.774 41.128C557.31 42.328 558.438 43.912 559.158 45.88C559.926 47.848 560.31 50.224 560.31 53.008C560.31 55.792 559.95 58.264 559.23 60.424C558.558 62.536 557.526 64.312 556.134 65.752C554.79 67.144 553.086 68.2 551.022 68.92C549.006 69.64 546.63 70 543.894 70H527.118ZM537.774 62.512H541.806C545.022 62.512 547.206 61.744 548.358 60.208C549.51 58.624 550.086 56.2 550.086 52.936C550.086 50.584 549.798 48.688 549.222 47.248C548.694 45.76 547.782 44.656 546.486 43.936C545.238 43.216 543.558 42.856 541.446 42.856H537.774V62.512ZM537.774 35.512H541.374C543.486 35.512 545.118 35.2 546.27 34.576C547.422 33.952 548.214 32.992 548.646 31.696C549.126 30.4 549.366 28.768 549.366 26.8C549.366 24.736 549.006 23.152 548.286 22.048C547.614 20.896 546.582 20.128 545.19 19.744C543.798 19.312 542.022 19.096 539.862 19.096H537.774V35.512ZM583.756 70.792C579.628 70.792 576.34 70.024 573.892 68.488C571.444 66.952 569.692 64.744 568.636 61.864C567.58 58.984 567.052 55.576 567.052 51.64V29.824C567.052 25.888 567.58 22.528 568.636 19.744C569.692 16.912 571.444 14.752 573.892 13.264C576.34 11.776 579.628 11.032 583.756 11.032C587.98 11.032 591.292 11.776 593.692 13.264C596.14 14.752 597.892 16.912 598.948 19.744C600.052 22.528 600.604 25.888 600.604 29.824V51.712C600.604 55.6 600.052 58.984 598.948 61.864C597.892 64.696 596.14 66.904 593.692 68.488C591.292 70.024 587.98 70.792 583.756 70.792ZM583.756 62.944C585.532 62.944 586.828 62.56 587.644 61.792C588.508 61.024 589.084 59.968 589.372 58.624C589.66 57.28 589.804 55.816 589.804 54.232V27.376C589.804 25.744 589.66 24.28 589.372 22.984C589.084 21.688 588.508 20.68 587.644 19.96C586.828 19.192 585.532 18.808 583.756 18.808C582.076 18.808 580.804 19.192 579.94 19.96C579.076 20.68 578.5 21.688 578.212 22.984C577.924 24.28 577.78 25.744 577.78 27.376V54.232C577.78 55.816 577.9 57.28 578.14 58.624C578.428 59.968 579.004 61.024 579.868 61.792C580.732 62.56 582.028 62.944 583.756 62.944ZM609.35 70V11.68H634.046V19.528H619.934V70H609.35ZM656.423 70.792C652.295 70.792 649.007 70.024 646.559 68.488C644.111 66.952 642.359 64.744 641.303 61.864C640.247 58.984 639.719 55.576 639.719 51.64V29.824C639.719 25.888 640.247 22.528 641.303 19.744C642.359 16.912 644.111 14.752 646.559 13.264C649.007 11.776 652.295 11.032 656.423 11.032C660.647 11.032 663.959 11.776 666.359 13.264C668.807 14.752 670.559 16.912 671.615 19.744C672.719 22.528 673.271 25.888 673.271 29.824V51.712C673.271 55.6 672.719 58.984 671.615 61.864C670.559 64.696 668.807 66.904 666.359 68.488C663.959 70.024 660.647 70.792 656.423 70.792ZM656.423 62.944C658.199 62.944 659.495 62.56 660.311 61.792C661.175 61.024 661.751 59.968 662.039 58.624C662.327 57.28 662.471 55.816 662.471 54.232V27.376C662.471 25.744 662.327 24.28 662.039 22.984C661.751 21.688 661.175 20.68 660.311 19.96C659.495 19.192 658.199 18.808 656.423 18.808C654.743 18.808 653.471 19.192 652.607 19.96C651.743 20.68 651.167 21.688 650.879 22.984C650.591 24.28 650.447 25.744 650.447 27.376V54.232C650.447 55.816 650.567 57.28 650.807 58.624C651.095 59.968 651.671 61.024 652.535 61.792C653.399 62.56 654.695 62.944 656.423 62.944ZM700.101 70V11.68H733.725V70H723.213V19.24H710.613V70H700.101ZM759.059 70.792C754.931 70.792 751.643 70.024 749.195 68.488C746.747 66.952 744.995 64.744 743.939 61.864C742.883 58.984 742.355 55.576 742.355 51.64V29.824C742.355 25.888 742.883 22.528 743.939 19.744C744.995 16.912 746.747 14.752 749.195 13.264C751.643 11.776 754.931 11.032 759.059 11.032C763.283 11.032 766.595 11.776 768.995 13.264C771.443 14.752 773.195 16.912 774.251 19.744C775.355 22.528 775.907 25.888 775.907 29.824V51.712C775.907 55.6 775.355 58.984 774.251 61.864C773.195 64.696 771.443 66.904 768.995 68.488C766.595 70.024 763.283 70.792 759.059 70.792ZM759.059 62.944C760.835 62.944 762.131 62.56 762.947 61.792C763.811 61.024 764.387 59.968 764.675 58.624C764.963 57.28 765.107 55.816 765.107 54.232V27.376C765.107 25.744 764.963 24.28 764.675 22.984C764.387 21.688 763.811 20.68 762.947 19.96C762.131 19.192 760.835 18.808 759.059 18.808C757.379 18.808 756.107 19.192 755.243 19.96C754.379 20.68 753.803 21.688 753.515 22.984C753.227 24.28 753.083 25.744 753.083 27.376V54.232C753.083 55.816 753.203 57.28 753.443 58.624C753.731 59.968 754.307 61.024 755.171 61.792C756.035 62.56 757.331 62.944 759.059 62.944ZM784.653 70V11.68H795.237V36.16H797.397L806.829 11.68H817.413L806.325 39.184L818.277 70H807.477L797.397 43.144H795.237V70H784.653ZM840.023 70.792C835.895 70.792 832.607 70.024 830.159 68.488C827.711 66.952 825.959 64.744 824.903 61.864C823.847 58.984 823.319 55.576 823.319 51.64V29.824C823.319 25.888 823.847 22.528 824.903 19.744C825.959 16.912 827.711 14.752 830.159 13.264C832.607 11.776 835.895 11.032 840.023 11.032C844.247 11.032 847.559 11.776 849.959 13.264C852.407 14.752 854.159 16.912 855.215 19.744C856.319 22.528 856.871 25.888 856.871 29.824V51.712C856.871 55.6 856.319 58.984 855.215 61.864C854.159 64.696 852.407 66.904 849.959 68.488C847.559 70.024 844.247 70.792 840.023 70.792ZM840.023 62.944C841.799 62.944 843.095 62.56 843.911 61.792C844.775 61.024 845.351 59.968 845.639 58.624C845.927 57.28 846.071 55.816 846.071 54.232V27.376C846.071 25.744 845.927 24.28 845.639 22.984C845.351 21.688 844.775 20.68 843.911 19.96C843.095 19.192 841.799 18.808 840.023 18.808C838.343 18.808 837.071 19.192 836.207 19.96C835.343 20.68 834.767 21.688 834.479 22.984C834.191 24.28 834.047 25.744 834.047 27.376V54.232C834.047 55.816 834.167 57.28 834.407 58.624C834.695 59.968 835.271 61.024 836.135 61.792C836.999 62.56 838.295 62.944 840.023 62.944ZM861.441 70V62.368C862.785 62.416 863.913 62.344 864.825 62.152C865.785 61.912 866.577 61.408 867.201 60.64C867.873 59.872 868.425 58.696 868.857 57.112C869.289 55.48 869.649 53.296 869.937 50.56C870.225 47.824 870.537 44.344 870.873 40.12L872.745 11.68H901.113V70H890.529V19.672H882.177L880.881 41.416C880.593 45.688 880.257 49.456 879.873 52.72C879.537 55.984 878.985 58.768 878.217 61.072C877.497 63.328 876.465 65.152 875.121 66.544C873.777 67.936 872.001 68.92 869.793 69.496C867.585 70.024 864.801 70.192 861.441 70ZM910.841 70V11.68H935.321V19.168H921.497V35.944H932.369V43.36H921.497V62.656H935.465V70H910.841ZM942.502 70V11.68H953.086V36.088H964.966V11.68H975.622V70H964.966V43.648H953.086V70H942.502ZM985.41 70V11.68H994.122V48.472L1010.11 11.68H1017.23V70H1008.45V32.632L992.394 70H985.41ZM1023.31 70L1034.97 43.936C1032.57 42.688 1030.63 40.768 1029.14 38.176C1027.65 35.536 1026.91 32.296 1026.91 28.456C1026.91 24.616 1027.6 21.472 1029 19.024C1030.39 16.528 1032.48 14.68 1035.26 13.48C1038.09 12.28 1041.67 11.68 1045.99 11.68H1059.45V70H1048.87V46.384H1045.48C1045.39 46.384 1045.17 46.384 1044.84 46.384C1044.5 46.384 1044.28 46.384 1044.19 46.384L1034.9 70H1023.31ZM1046.49 38.896H1048.87V19.096H1046.28C1043.16 19.096 1040.8 19.864 1039.22 21.4C1037.64 22.888 1036.84 25.24 1036.84 28.456C1036.84 31.768 1037.54 34.336 1038.93 36.16C1040.37 37.984 1042.89 38.896 1046.49 38.896Z" fill="#1C3143"/>
</svg>
